# xmcd
#
# Track frame offsets: 
#        150
#        15949
#        31389
#        42617
#        53562
#        67028
#        77559
#        92891
#        103740
#        114986
#        132878
#        144673
#        158521
#
# Disc length: 2441 seconds
#
# Revision: 0
# Processed by: cddbd v1.5.2PL0 Copyright (c) Steve Scherf et al.
# Submitted via: ExactAudioCopy v0.95b4
#
DISCID=a309870d
DTITLE=Lou Reid and Carolina - My Own Set Of Rules
DYEAR=2009
DGENRE=Bluegrass
TTITLE0=Amanda Lynn
TTITLE1=Picture Me There
TTITLE2=She's More To Be Pitied
TTITLE3=It Hard To Stumble( When You're Down On Your Knees)
TTITLE4=In Despair
TTITLE5=Beat The Train ( Instrumental )
TTITLE6=Daddy Tried
TTITLE7=John In The Jordan
TTITLE8=Left Handed Dreamer
TTITLE9=Mama
TTITLE10=Over In The Promised Land
TTITLE11=Blue Ridge Girl
TTITLE12=A Tall Cornstalk
EXTD=
EXTT0=
EXTT1=
EXTT2=
EXTT3=
EXTT4=
EXTT5=
EXTT6=
EXTT7=
EXTT8=
EXTT9=
EXTT10=
EXTT11=
EXTT12=
PLAYORDER=
